<svg width="360" height="120" viewBox="0 0 360 120" fill="none" xmlns="http://www.w3.org/2000/svg">
  <circle cx="48" cy="60" r="34" fill="#6B3F29"/>
  <path d="M30 74C35 58 47 49 66 48" stroke="#F5E8DA" stroke-width="4" stroke-linecap="round"/>
  <path d="M29 60C35 50 43 44 55 40C60 38 66 38 72 39" stroke="#F5E8DA" stroke-width="4" stroke-linecap="round"/>
  <path d="M44 73C41 64 44 57 52 52C59 47 67 46 75 49" stroke="#D9B48A" stroke-width="4" stroke-linecap="round"/>
  <path d="M46 51C49 46 54 42 61 40" stroke="#F0C08F" stroke-width="4" stroke-linecap="round"/>
  <ellipse cx="45" cy="56" rx="7" ry="10" fill="#F7EBD9"/>
  <path d="M45 47V65" stroke="#6B3F29" stroke-width="2" stroke-linecap="round"/>
  <text x="95" y="50" fill="#6B3F29" font-family="Georgia, 'Times New Roman', serif" font-size="30" font-style="italic" font-weight="700">Juan</text>
  <text x="95" y="82" fill="#6B3F29" font-family="Georgia, 'Times New Roman', serif" font-size="34" font-style="italic" font-weight="700">Valdez</text>
  <text x="97" y="100" fill="#B37A56" font-family="Arial, Helvetica, sans-serif" font-size="11" font-weight="700" letter-spacing="0.28em">CAFE DE ORIGEN</text>
</svg>
